<?xml version="1.0" encoding="UTF-8" standalone="no"?>
<!-- Created with Inkscape (http://www.inkscape.org/) -->

<svg
   xmlns:dc="http://purl.org/dc/elements/1.1/"
   xmlns:cc="http://creativecommons.org/ns#"
   xmlns:rdf="http://www.w3.org/1999/02/22-rdf-syntax-ns#"
   xmlns:svg="http://www.w3.org/2000/svg"
   xmlns="http://www.w3.org/2000/svg"
   xmlns:sodipodi="http://sodipodi.sourceforge.net/DTD/sodipodi-0.dtd"
   xmlns:inkscape="http://www.inkscape.org/namespaces/inkscape"
   width="153mm"
   height="234mm"
   viewBox="0 0 153 234"
   version="1.1"
   id="svg8"
   inkscape:version="0.92.3 (2405546, 2018-03-11)"
   sodipodi:docname="home-chinese.svg">
  <defs
     id="defs2" />
  <sodipodi:namedview
     id="base"
     pagecolor="#ffffff"
     bordercolor="#666666"
     borderopacity="1.0"
     inkscape:pageopacity="0.0"
     inkscape:pageshadow="2"
     inkscape:zoom="0.58488227"
     inkscape:cx="172.38283"
     inkscape:cy="550.91109"
     inkscape:document-units="mm"
     inkscape:current-layer="layer1"
     showgrid="false"
     inkscape:window-width="745"
     inkscape:window-height="1041"
     inkscape:window-x="1165"
     inkscape:window-y="0"
     inkscape:window-maximized="0" />
  <metadata
     id="metadata5">
    <rdf:RDF>
      <cc:Work
         rdf:about="">
        <dc:format>image/svg+xml</dc:format>
        <dc:type
           rdf:resource="http://purl.org/dc/dcmitype/StillImage" />
        <dc:title></dc:title>
      </cc:Work>
    </rdf:RDF>
  </metadata>
  <g
     inkscape:label="Layer 1"
     inkscape:groupmode="layer"
     id="layer1"
     transform="translate(0,-63)">
    <path
       style="fill:#000000;stroke-width:0.33859828"
       d="m 23.334452,272.6604 c -1.736532,-0.53468 -3.300268,-1.61847 -2.91534,-2.02054 0.149257,-0.15591 1.625246,-1.24978 3.279975,-2.43083 l 3.008599,-2.14735 1.108431,0.74494 c 0.967812,0.65044 1.610643,0.74089 5.067114,0.71295 3.57699,-0.0289 4.325107,-0.15699 7.759017,-1.32828 2.090185,-0.71295 5.724255,-2.13975 8.075713,-3.17067 2.351457,-1.03092 5.059196,-2.19718 6.017197,-2.59169 0.958002,-0.39451 2.169359,-1.16624 2.691905,-1.71495 0.522546,-0.54872 2.111868,-1.98259 3.531825,-3.18639 4.709857,-3.99288 13.540652,-12.63578 15.520323,-15.1901 2.422134,-3.12522 5.30257,-7.68445 6.359212,-10.06552 1.59292,-3.58956 1.982723,-5.48837 1.982723,-9.65826 0,-2.15904 -0.07285,-3.92552 -0.161888,-3.92552 -0.08904,0 -2.262355,1.40757 -4.829593,3.12792 -9.706414,6.50446 -32.07323,18.9926 -31.232932,17.43839 0.132509,-0.24509 -0.320431,-0.059 -1.006531,0.41342 -0.686097,0.47245 -1.853129,1.25372 -2.593403,1.73614 -0.740273,0.48243 -1.345952,0.95427 -1.345952,1.04856 0,0.0943 0.142513,0.0707 0.316695,-0.0523 0.174182,-0.12306 0.316694,-0.12938 0.316694,-0.0141 0,0.23974 -2.959053,2.5359 -7.815794,6.06489 -2.11848,1.53933 -4.284486,2.77825 -5.906673,3.37854 -1.408826,0.52133 -2.947869,1.17626 -3.420095,1.45541 -0.749806,0.44323 -2.970851,1.35866 -10.093174,4.16005 -3.056379,1.20215 -3.088687,0.82521 -0.146691,-1.71147 2.566776,-2.21315 3.220511,-2.57595 7.843811,-4.35299 2.774012,-1.06624 6.233851,-2.5018 7.68853,-3.19014 1.454679,-0.68835 2.842757,-1.16473 3.084617,-1.05864 0.249786,0.10957 1.0592,-0.4953 1.873749,-1.40025 0.788701,-0.87623 2.056311,-2.00271 2.816909,-2.50331 0.760599,-0.50059 2.69418,-1.82625 4.296846,-2.94591 3.500311,-2.4454 8.091699,-5.10283 11.970708,-6.92848 1.567638,-0.7378 7.186038,-3.79314 12.485333,-6.78963 7.500617,-4.24123 10.295349,-6.01784 12.615565,-8.0197 l 2.980482,-2.57154 -0.197845,-1.44807 c -0.812756,-5.94872 -4.175295,-15.32803 -8.779589,-24.48936 l -2.89602,-5.76231 -0.836387,1.73121 c -2.758207,5.70911 -4.459073,8.07956 -13.295749,18.52985 -9.549219,11.29296 -16.970861,18.6112 -24.756258,24.41135 -3.186406,2.37389 -12.716356,8.72662 -15.19178,10.12696 -1.515936,0.85757 -4.55864,1.79361 -4.089788,1.25817 1.159113,-1.32373 6.453537,-5.17703 7.689891,-5.59673 4.183478,-1.42015 15.198465,-10.82704 23.822882,-20.34494 9.79494,-10.80968 16.692545,-20.08484 19.148161,-25.74839 0.388486,-0.89599 1.35721,-2.96936 2.152719,-4.60749 1.18698,-2.44426 1.635734,-3.04986 2.502185,-3.37673 0.580691,-0.21908 1.055802,-0.48666 1.055802,-0.59463 0,-0.10798 -0.977395,-2.09096 -2.171989,-4.40663 -1.194591,-2.31568 -2.806279,-5.67649 -3.581528,-7.46848 -1.685572,-3.89621 -3.599086,-7.66385 -5.147532,-10.13531 -0.623341,-0.99491 -1.13136,-1.97235 -1.128931,-2.1721 0.0035,-0.28956 5.309388,-4.02897 6.315638,-4.45108 0.566671,-0.2377 4.484098,6.86365 7.14286,12.94829 0.998367,2.2848 2.878149,6.24442 4.177294,8.79916 1.299141,2.55474 2.690156,5.49114 3.091142,6.52533 0.400986,1.03419 1.694731,3.75378 2.874991,6.04353 3.408958,6.61354 6.286046,13.99915 7.650598,19.63943 0.744755,3.0784 1.339849,4.91978 1.559607,4.82585 0.337989,-0.14445 6.121485,-4.9267 14.054257,-11.62116 2.00309,-1.69041 4.49706,-3.56656 5.54216,-4.16923 1.04509,-0.60267 2.50648,-1.59052 3.24754,-2.19522 1.27743,-1.04237 7.33848,-4.09279 7.58112,-3.81543 0.16845,0.19256 -6.30471,4.80968 -7.63173,5.44349 -0.62639,0.29918 -1.45944,0.93002 -1.85122,1.40187 -0.39178,0.47184 -2.99253,2.78617 -5.77944,5.14294 -5.88006,4.97252 -6.15176,5.23457 -4.36717,4.21218 0.73334,-0.42013 1.3901,-0.76387 1.45947,-0.76387 0.26254,0 2.42616,3.98552 3.55647,6.5512 2.67311,6.06775 7.50638,15.0192 10.44451,19.34375 2.62685,3.86639 6.86336,8.40113 9.80979,10.50037 3.09572,2.20561 9.36259,5.40206 11.66003,5.94726 0.98905,0.23471 1.79532,0.53738 1.79173,0.67259 -0.004,0.13522 -1.44106,1.32541 -3.19437,2.64487 l -3.18782,2.39903 -2.04884,-0.70263 c -2.72975,-0.93615 -8.7299,-4.18376 -11.46097,-6.20333 -4.97873,-3.68163 -9.9191,-9.68713 -13.90098,-16.89798 -2.98369,-5.40319 -5.9099,-11.14097 -7.30973,-14.33309 -0.706574,-1.61125 -1.659296,-3.43847 -2.117158,-4.06047 l -0.832469,-1.13093 -2.672744,2.03323 -2.672741,2.03322 v 5.13823 c 0,5.71562 -0.302057,7.21215 -2.357209,11.6787 -2.75728,5.99252 -7.396656,11.81688 -15.377689,19.30544 -11.875149,11.14238 -18.527487,15.85843 -28.81921,20.43084 -11.725091,5.20923 -17.803385,6.72592 -21.899868,5.4646 z m 11.765641,-26.99319 c 0.261273,-0.20273 0.312689,-0.37109 0.114258,-0.37414 -0.198431,-0.003 -0.697225,0.32947 -1.108431,0.73893 -0.587565,0.58507 -0.612029,0.66518 -0.114258,0.37414 0.348364,-0.20368 0.847158,-0.5362 1.108431,-0.73893 z M 16.758197,187.57757 c 0.07258,-0.0821 1.272056,-1.16067 2.665513,-2.39682 2.500081,-2.21785 4.471187,-3.43769 6.100688,-3.77546 0.931504,-0.19308 5.462845,-3.64042 8.654987,-6.5845 7.844607,-7.23502 17.298775,-22.31576 19.596993,-31.26001 0.383707,-1.49332 1.148316,-4.08342 1.699127,-5.75577 l 1.001474,-3.04064 3.259202,-1.75608 c 1.792564,-0.96585 3.381434,-1.75609 3.530822,-1.75609 0.149388,0 -0.149325,1.26254 -0.663811,2.80563 -0.514486,1.5431 -1.345135,4.29532 -1.845886,6.11605 -1.506171,5.47642 -4.010731,10.55579 -8.899476,18.04858 -5.524342,8.46695 -8.859887,12.28261 -14.673316,16.78537 -3.868607,2.99641 -11.964074,8.59698 -14.646851,10.13292 -2.793083,1.5991 -6.373376,3.10867 -5.779466,2.43682 z m 7.574279,-5.12545 c 0,-0.0996 -0.285025,-0.007 -0.633389,0.20648 -0.348364,0.21312 -0.633389,0.46895 -0.633389,0.5685 0,0.0996 0.285025,0.007 0.633389,-0.20648 0.348364,-0.21312 0.633389,-0.46894 0.633389,-0.5685 z M 12.816708,142.74624 c 0.481731,-2.65011 1.585851,-14.90865 1.885979,-20.93916 l 0.208821,-4.19587 2.572796,-1.48454 2.572795,-1.48454 -3.445905,-0.0213 -3.445905,-0.0213 3.047238,-2.53412 3.047239,-2.53412 h 10.567699 c 6.707556,0 12.290206,-0.18787 15.283313,-0.51433 2.593589,-0.28288 6.425765,-0.61778 8.515949,-0.74421 2.090185,-0.12644 5.996543,-0.46517 8.680793,-0.75273 2.684253,-0.28757 6.55288,-0.52285 8.596947,-0.52285 3.139935,0 4.274313,-0.17066 7.312282,-1.10007 5.547999,-1.6973 8.068676,-2.35459 16.105235,-4.19961 4.093278,-0.93973 8.653676,-2.002872 10.134226,-2.362549 3.0333,-0.736895 7.5015,-1.335623 12.19274,-1.6338 2.86114,-0.181855 3.2434,-0.130411 3.95869,0.532758 l 0.79173,0.734049 0.0842,10.440412 0.0841,10.44041 -3.48861,2.09435 -3.48862,2.09435 v -10.07682 c 0,-7.35484 -0.10266,-10.19417 -0.38003,-10.51124 -0.76377,-0.87307 -9.16288,-0.29121 -14.979659,1.03774 -1.567638,0.35816 -6.270553,1.41482 -10.450922,2.34814 -4.180369,0.93331 -10.239202,2.4919 -13.464072,3.46353 -5.106165,1.53844 -6.271814,1.76802 -9.025796,1.77768 -1.739319,0.006 -4.872546,0.15769 -6.962731,0.33687 -2.090184,0.17918 -6.151792,0.50932 -9.025796,0.73365 -2.874004,0.22432 -7.36315,0.64323 -9.97588,0.9309 -2.612731,0.28767 -7.835604,0.52271 -11.606385,0.52232 l -6.855966,-7.1e-4 -0.210431,2.62462 c -0.579298,7.22538 -1.466533,17.4869 -1.780723,20.59537 l -0.352761,3.49008 -3.407553,1.84967 c -1.874155,1.01732 -3.474776,1.84968 -3.556936,1.84968 -0.08216,0 0.0357,-1.01818 0.261909,-2.26261 z m 19.736457,-7.82477 c 2.976059,-2.48222 2.982274,-2.48526 5.534244,-2.70287 1.405162,-0.11982 4.047192,-0.54836 5.871179,-0.95232 3.344432,-0.74071 18.969118,-5.44038 26.294606,-7.90904 l 3.958683,-1.33406 13.301173,-0.18221 c 7.315646,-0.10022 13.47015,-0.30754 13.67668,-0.46071 0.36789,-0.27284 7.15472,-2.07461 7.81456,-2.07461 0.18431,0 -1.08426,1.19076 -2.81905,2.64614 l -3.15415,2.64614 -4.750423,1.15031 -4.750419,1.15032 -12.35109,0.13225 c -8.427383,0.0902 -12.703216,0.26906 -13.459521,0.56289 -0.609637,0.23685 -4.742501,1.49496 -9.184143,2.79579 -4.441642,1.30083 -10.070889,3.01044 -12.509437,3.79913 -5.271921,1.70507 -12.16408,3.21787 -14.660297,3.21787 h -1.791999 z m 38.016724,-32.28976 c -0.958001,-0.76735 -4.663328,-2.977479 -8.23406,-4.911403 -3.570732,-1.933925 -7.418571,-4.162451 -8.550754,-4.952279 -1.132184,-0.789829 -2.517586,-1.753064 -3.078674,-2.140523 l -1.020159,-0.704471 3.315378,-2.497799 3.315377,-2.497798 2.455201,1.847117 c 1.35036,1.015915 5.799337,3.717461 9.886616,6.003437 6.992617,3.910904 10.461829,6.1192 10.461829,6.659386 0,0.354927 -5.997508,4.669143 -6.431678,4.626533 -0.207492,-0.0204 -1.161075,-0.66486 -2.119076,-1.4322 z"
       id="path192"
       inkscape:connector-curvature="0" />
  </g>
</svg>
