<svg
   xmlns:osb="http://www.openswatchbook.org/uri/2009/osb"
   xmlns:dc="http://purl.org/dc/elements/1.1/"
   xmlns:cc="http://creativecommons.org/ns#"
   xmlns:rdf="http://www.w3.org/1999/02/22-rdf-syntax-ns#"
   xmlns:svg="http://www.w3.org/2000/svg"
   xmlns="http://www.w3.org/2000/svg"
   xmlns:xlink="http://www.w3.org/1999/xlink"
   xmlns:sodipodi="http://sodipodi.sourceforge.net/DTD/sodipodi-0.dtd"
   xmlns:inkscape="http://www.inkscape.org/namespaces/inkscape"
   version="1.1"
   id="Layer_1"
   x="0px"
   y="0px"
   width="1224px"
   height="792px"
   viewBox="0 0 1224 792"
   enable-background="new 0 0 1224 792"
   xml:space="preserve"
   sodipodi:docname="Accessibility-Icon_final.svg"
   inkscape:version="0.92.3 (2405546, 2018-03-11)"><metadata
   id="metadata38"><rdf:RDF><cc:Work
       rdf:about=""><dc:format>image/svg+xml</dc:format><dc:type
         rdf:resource="http://purl.org/dc/dcmitype/StillImage" /><dc:title></dc:title></cc:Work></rdf:RDF></metadata><defs
   id="defs36"><linearGradient
     inkscape:collect="always"
     id="linearGradient7558"><stop
       style="stop-color:#000000;stop-opacity:1;"
       offset="0"
       id="stop7554" /><stop
       style="stop-color:#000000;stop-opacity:0;"
       offset="1"
       id="stop7556" /></linearGradient><linearGradient
     id="linearGradient7538"
     osb:paint="solid"><stop
       style="stop-color:#000000;stop-opacity:1;"
       offset="0"
       id="stop7536" /></linearGradient><pattern
     inkscape:isstock="true"
     inkscape:stockid="Stripes 1:1.5"
     id="Strips1_1.5"
     patternTransform="translate(0,0) scale(10,10)"
     height="1"
     width="2.5"
     patternUnits="userSpaceOnUse"
     inkscape:collect="always"><rect
       id="rect5304"
       height="2"
       width="1"
       y="-0.5"
       x="0"
       style="fill:black;stroke:none" /></pattern><linearGradient
     id="linearGradient7506"
     osb:paint="solid"><stop
       style="stop-color:#000000;stop-opacity:1;"
       offset="0"
       id="stop7504" /></linearGradient><marker
     inkscape:stockid="Arrow1Lend"
     orient="auto"
     refY="0.0"
     refX="0.0"
     id="Arrow1Lend"
     style="overflow:visible;"
     inkscape:isstock="true"><path
       id="path6431"
       d="M 0.0,0.0 L 5.0,-5.0 L -12.5,0.0 L 5.0,5.0 L 0.0,0.0 z "
       style="fill-rule:evenodd;stroke:none;stroke-width:1pt;stroke-opacity:1;fill:#000000;fill-opacity:1"
       transform="scale(0.8) rotate(180) translate(12.5,0)" /></marker><radialGradient
     inkscape:collect="always"
     xlink:href="#linearGradient7558"
     id="radialGradient7560"
     cx="520.80584"
     cy="63.6721"
     fx="520.80584"
     fy="63.6721"
     r="64.32"
     gradientTransform="matrix(1,0,0,1.0000389,0,-0.00247503)"
     gradientUnits="userSpaceOnUse" /></defs><sodipodi:namedview
   pagecolor="#ffffff"
   bordercolor="#666666"
   borderopacity="1"
   objecttolerance="10"
   gridtolerance="10"
   guidetolerance="10"
   inkscape:pageopacity="0"
   inkscape:pageshadow="2"
   inkscape:window-width="958"
   inkscape:window-height="1041"
   id="namedview34"
   showgrid="false"
   inkscape:pagecheckerboard="true"
   inkscape:snap-text-baseline="false"
   inkscape:snap-intersection-paths="true"
   inkscape:snap-others="false"
   inkscape:zoom="0.65196078"
   inkscape:cx="611.99501"
   inkscape:cy="396.03867"
   inkscape:window-x="952"
   inkscape:window-y="0"
   inkscape:window-maximized="0"
   inkscape:current-layer="g31" />
<g
   id="g31"
   transform="translate(-47.548834)">
	<path
   d="m 813.944,390.163 c -7.753,-7.955 -18.586,-12.155 -29.656,-11.549 l -133.981,7.458 73.733,-83.975 c 10.504,-11.962 13.505,-27.908 9.444,-42.157 -2.143,-9.764 -8.056,-18.648 -17.14,-24.324 -0.279,-0.199 -176.247,-102.423 -176.247,-102.423 -14.369,-8.347 -32.475,-6.508 -44.875,4.552 l -85.958,76.676 c -15.837,14.126 -17.224,38.416 -3.097,54.254 14.128,15.836 38.419,17.227 54.255,3.096 l 65.168,-58.131 53.874,31.285 -95.096,108.305 c -39.433,6.431 -74.913,24.602 -102.765,50.801 l 49.66,49.66 c 22.449,-20.412 52.256,-32.871 84.918,-32.871 69.667,0 126.346,56.68 126.346,126.348 0,32.662 -12.459,62.467 -32.869,84.916 l 49.657,49.66 c 33.08,-35.166 53.382,-82.484 53.382,-134.576 0,-31.035 -7.205,-60.384 -20.016,-86.482 l 51.861,-2.889 -12.616,154.75 c -1.725,21.152 14.027,39.695 35.18,41.422 1.059,0.086 2.116,0.127 3.163,0.127 19.806,0 36.621,-15.219 38.257,-35.306 l 16.193,-198.685 c 0.904,-11.071 -3.026,-21.989 -10.775,-29.942 z"
   id="path25"
   inkscape:connector-curvature="0"
   style="opacity:1;fill-opacity:1;fill-rule:evenodd;stroke-width:0.1;stroke-miterlimit:4;stroke-dasharray:none;marker-start:url(#Arrow1Lend);paint-order:stroke markers fill" />
	<path
   d="m 520.80884,127.9946 c 35.523,0 64.317,-28.797 64.317,-64.322 0,-35.523 -28.794,-64.32300043 -64.317,-64.32300043 -35.527,0 -64.323,28.80000043 -64.323,64.32300043 0,35.525 28.795,64.322 64.323,64.322 z"
   id="path27"
   inkscape:connector-curvature="0"
   style="opacity:0.886;fill-opacity:1;fill:url(#radialGradient7560)" />
	<path
   d="m 488.24513,531.2869 c -69.668,0 -126.348,-56.68 -126.348,-126.348 0,-26.256 8.056,-50.66 21.817,-70.887 l -50.196,-50.195 c -26.155,33.377 -41.791,75.393 -41.791,121.082 0,108.535 87.983,196.517 196.518,196.517 45.691,0 87.703,-15.636 121.079,-41.792 l -50.195,-50.193 c -20.226,13.757 -44.63,21.816 -70.884,21.816 z"
   id="path29"
   inkscape:connector-curvature="0"
   style="opacity:0.597;fill-opacity:1.0;fill:url(#Strips1_1.5)" />
</g>
</svg>